<mxfile host="app.diagrams.net" modified="2023-12-27T13:24:06.886Z" agent="Mozilla/5.0 (Windows NT 10.0; Win64; x64) AppleWebKit/537.36 (KHTML, like Gecko) Chrome/120.0.0.0 Safari/537.36" etag="8jvLpYAwXNMaNAFOzkhL" version="22.1.12" type="github">
  <diagram name="Page-1" id="74e2e168-ea6b-b213-b513-2b3c1d86103e">
    <mxGraphModel dx="1195" dy="650" grid="1" gridSize="10" guides="1" tooltips="1" connect="1" arrows="1" fold="1" page="1" pageScale="1" pageWidth="1100" pageHeight="850" background="none" math="0" shadow="0">
      <root>
        <mxCell id="0" />
        <mxCell id="1" parent="0" />
        <mxCell id="77e6c97f196da883-1" value="Rental Application-Purchase Process" style="swimlane;html=1;childLayout=stackLayout;startSize=20;rounded=0;shadow=0;labelBackgroundColor=none;strokeWidth=1;fontFamily=Verdana;fontSize=8;align=center;" parent="1" vertex="1">
          <mxGeometry x="60" y="40" width="480" height="1200" as="geometry" />
        </mxCell>
        <mxCell id="77e6c97f196da883-2" value="User" style="swimlane;html=1;startSize=20;" parent="77e6c97f196da883-1" vertex="1">
          <mxGeometry y="20" width="160" height="1180" as="geometry" />
        </mxCell>
        <mxCell id="j1nzViJjYUKPPVmFAg8O-12" value="&lt;br&gt;Choose&lt;br&gt;Seat" style="html=1;strokeWidth=1;shape=manualInput;whiteSpace=wrap;rounded=1;size=26;arcSize=11;" parent="77e6c97f196da883-2" vertex="1">
          <mxGeometry x="30" y="280" width="100" height="60" as="geometry" />
        </mxCell>
        <mxCell id="j1nzViJjYUKPPVmFAg8O-20" value="&lt;br&gt;Choose&lt;br&gt;Hours To Rent" style="html=1;strokeWidth=1;shape=manualInput;whiteSpace=wrap;rounded=1;size=26;arcSize=11;" parent="77e6c97f196da883-2" vertex="1">
          <mxGeometry x="30" y="480" width="100" height="60" as="geometry" />
        </mxCell>
        <mxCell id="j1nzViJjYUKPPVmFAg8O-30" value="&lt;br&gt;Insert&lt;br&gt;Paper&amp;amp;Coin" style="html=1;strokeWidth=1;shape=manualInput;whiteSpace=wrap;rounded=1;size=26;arcSize=11;" parent="77e6c97f196da883-2" vertex="1">
          <mxGeometry x="30" y="690" width="100" height="60" as="geometry" />
        </mxCell>
        <mxCell id="j1nzViJjYUKPPVmFAg8O-9" value="" style="endArrow=classic;html=1;rounded=0;exitX=0;exitY=0.5;exitDx=0;exitDy=0;" parent="77e6c97f196da883-1" source="j1nzViJjYUKPPVmFAg8O-3" edge="1">
          <mxGeometry width="50" height="50" relative="1" as="geometry">
            <mxPoint x="330" y="280" as="sourcePoint" />
            <mxPoint x="300" y="230" as="targetPoint" />
          </mxGeometry>
        </mxCell>
        <mxCell id="j1nzViJjYUKPPVmFAg8O-19" value="" style="edgeStyle=orthogonalEdgeStyle;rounded=0;orthogonalLoop=1;jettySize=auto;html=1;" parent="77e6c97f196da883-1" source="j1nzViJjYUKPPVmFAg8O-11" target="j1nzViJjYUKPPVmFAg8O-18" edge="1">
          <mxGeometry relative="1" as="geometry" />
        </mxCell>
        <mxCell id="j1nzViJjYUKPPVmFAg8O-21" style="edgeStyle=orthogonalEdgeStyle;rounded=0;orthogonalLoop=1;jettySize=auto;html=1;entryX=1.008;entryY=0.639;entryDx=0;entryDy=0;entryPerimeter=0;" parent="77e6c97f196da883-1" source="j1nzViJjYUKPPVmFAg8O-18" target="j1nzViJjYUKPPVmFAg8O-20" edge="1">
          <mxGeometry relative="1" as="geometry">
            <Array as="points">
              <mxPoint x="150" y="430" />
              <mxPoint x="150" y="538" />
            </Array>
          </mxGeometry>
        </mxCell>
        <mxCell id="j1nzViJjYUKPPVmFAg8O-22" style="edgeStyle=orthogonalEdgeStyle;rounded=0;orthogonalLoop=1;jettySize=auto;html=1;entryX=1;entryY=0.25;entryDx=0;entryDy=0;" parent="77e6c97f196da883-1" source="j1nzViJjYUKPPVmFAg8O-6" target="j1nzViJjYUKPPVmFAg8O-12" edge="1">
          <mxGeometry relative="1" as="geometry">
            <Array as="points">
              <mxPoint x="150" y="230" />
              <mxPoint x="150" y="315" />
            </Array>
          </mxGeometry>
        </mxCell>
        <mxCell id="j1nzViJjYUKPPVmFAg8O-23" style="edgeStyle=orthogonalEdgeStyle;rounded=0;orthogonalLoop=1;jettySize=auto;html=1;exitX=1;exitY=0.75;exitDx=0;exitDy=0;" parent="77e6c97f196da883-1" source="j1nzViJjYUKPPVmFAg8O-12" target="j1nzViJjYUKPPVmFAg8O-11" edge="1">
          <mxGeometry relative="1" as="geometry" />
        </mxCell>
        <mxCell id="j1nzViJjYUKPPVmFAg8O-24" style="edgeStyle=orthogonalEdgeStyle;rounded=0;orthogonalLoop=1;jettySize=auto;html=1;entryX=0.549;entryY=0.014;entryDx=0;entryDy=0;entryPerimeter=0;exitX=0.5;exitY=1;exitDx=0;exitDy=0;" parent="77e6c97f196da883-1" source="j1nzViJjYUKPPVmFAg8O-1" target="j1nzViJjYUKPPVmFAg8O-3" edge="1">
          <mxGeometry relative="1" as="geometry" />
        </mxCell>
        <mxCell id="j1nzViJjYUKPPVmFAg8O-26" style="edgeStyle=orthogonalEdgeStyle;rounded=0;orthogonalLoop=1;jettySize=auto;html=1;entryX=0;entryY=0.5;entryDx=0;entryDy=0;" parent="77e6c97f196da883-1" source="j1nzViJjYUKPPVmFAg8O-20" target="j1nzViJjYUKPPVmFAg8O-25" edge="1">
          <mxGeometry relative="1" as="geometry">
            <mxPoint x="80" y="640" as="targetPoint" />
            <Array as="points">
              <mxPoint x="80" y="630" />
            </Array>
          </mxGeometry>
        </mxCell>
        <mxCell id="j1nzViJjYUKPPVmFAg8O-33" value="" style="endArrow=classic;html=1;rounded=0;exitX=0.5;exitY=1;exitDx=0;exitDy=0;" parent="77e6c97f196da883-1" source="j1nzViJjYUKPPVmFAg8O-28" edge="1">
          <mxGeometry width="50" height="50" relative="1" as="geometry">
            <mxPoint x="210" y="650" as="sourcePoint" />
            <mxPoint x="130" y="720" as="targetPoint" />
            <Array as="points">
              <mxPoint x="400" y="690" />
              <mxPoint x="150" y="690" />
              <mxPoint x="150" y="710" />
              <mxPoint x="150" y="720" />
            </Array>
          </mxGeometry>
        </mxCell>
        <mxCell id="77e6c97f196da883-3" value="User Interface" style="swimlane;html=1;startSize=20;" parent="77e6c97f196da883-1" vertex="1">
          <mxGeometry x="160" y="20" width="160" height="1180" as="geometry" />
        </mxCell>
        <mxCell id="j1nzViJjYUKPPVmFAg8O-1" value="HomePage" style="ellipse;whiteSpace=wrap;html=1;aspect=fixed;" parent="77e6c97f196da883-3" vertex="1">
          <mxGeometry x="40" y="60" width="80" height="80" as="geometry" />
        </mxCell>
        <mxCell id="j1nzViJjYUKPPVmFAg8O-6" value="Display&amp;nbsp; Seats As&lt;br&gt;Buttons" style="rounded=1;whiteSpace=wrap;html=1;" parent="77e6c97f196da883-3" vertex="1">
          <mxGeometry x="20" y="180" width="120" height="60" as="geometry" />
        </mxCell>
        <mxCell id="j1nzViJjYUKPPVmFAg8O-18" value="Display Purchase&amp;nbsp;&lt;br&gt;Option" style="rounded=1;whiteSpace=wrap;html=1;" parent="77e6c97f196da883-3" vertex="1">
          <mxGeometry x="20" y="380" width="120" height="60" as="geometry" />
        </mxCell>
        <mxCell id="j1nzViJjYUKPPVmFAg8O-25" value="Request User To Insert Cash" style="rounded=1;whiteSpace=wrap;html=1;" parent="77e6c97f196da883-3" vertex="1">
          <mxGeometry x="20" y="580" width="120" height="60" as="geometry" />
        </mxCell>
        <mxCell id="j1nzViJjYUKPPVmFAg8O-27" value="" style="endArrow=classic;html=1;rounded=0;exitX=1;exitY=0.5;exitDx=0;exitDy=0;" parent="77e6c97f196da883-3" source="j1nzViJjYUKPPVmFAg8O-25" edge="1">
          <mxGeometry width="50" height="50" relative="1" as="geometry">
            <mxPoint x="50" y="620" as="sourcePoint" />
            <mxPoint x="180" y="610" as="targetPoint" />
          </mxGeometry>
        </mxCell>
        <mxCell id="j1nzViJjYUKPPVmFAg8O-36" value="Update&lt;br&gt;Received Cash&lt;br&gt;Form" style="rounded=1;whiteSpace=wrap;html=1;" parent="77e6c97f196da883-3" vertex="1">
          <mxGeometry x="20" y="770" width="120" height="60" as="geometry" />
        </mxCell>
        <mxCell id="j1nzViJjYUKPPVmFAg8O-67" value="&lt;br&gt;Click On&amp;nbsp;&lt;br&gt;Checkout Button" style="html=1;strokeWidth=1;shape=manualInput;whiteSpace=wrap;rounded=1;size=26;arcSize=11;" parent="77e6c97f196da883-3" vertex="1">
          <mxGeometry x="-120" y="960" width="100" height="60" as="geometry" />
        </mxCell>
        <mxCell id="j1nzViJjYUKPPVmFAg8O-42" value="Enable &lt;br&gt;Checkout Button" style="rounded=1;whiteSpace=wrap;html=1;" parent="77e6c97f196da883-3" vertex="1">
          <mxGeometry x="20" y="960" width="120" height="60" as="geometry" />
        </mxCell>
        <mxCell id="j1nzViJjYUKPPVmFAg8O-70" style="edgeStyle=orthogonalEdgeStyle;rounded=0;orthogonalLoop=1;jettySize=auto;html=1;entryX=1;entryY=0.5;entryDx=0;entryDy=0;" parent="77e6c97f196da883-3" source="j1nzViJjYUKPPVmFAg8O-42" target="j1nzViJjYUKPPVmFAg8O-67" edge="1">
          <mxGeometry relative="1" as="geometry" />
        </mxCell>
        <mxCell id="77e6c97f196da883-4" value="System" style="swimlane;html=1;startSize=20;" parent="77e6c97f196da883-1" vertex="1">
          <mxGeometry x="320" y="20" width="160" height="1180" as="geometry" />
        </mxCell>
        <mxCell id="j1nzViJjYUKPPVmFAg8O-3" value="Get Seat Information" style="rounded=1;whiteSpace=wrap;html=1;" parent="77e6c97f196da883-4" vertex="1">
          <mxGeometry x="20" y="180" width="120" height="60" as="geometry" />
        </mxCell>
        <mxCell id="j1nzViJjYUKPPVmFAg8O-11" value="Get&amp;nbsp;&amp;nbsp;Option&lt;br&gt;Information" style="rounded=1;whiteSpace=wrap;html=1;" parent="77e6c97f196da883-4" vertex="1">
          <mxGeometry x="20" y="380" width="120" height="60" as="geometry" />
        </mxCell>
        <mxCell id="j1nzViJjYUKPPVmFAg8O-28" value="Start Paper&amp;amp;Coin&lt;br&gt;Mechanic&amp;nbsp;" style="rounded=1;whiteSpace=wrap;html=1;" parent="77e6c97f196da883-4" vertex="1">
          <mxGeometry x="20" y="580" width="120" height="60" as="geometry" />
        </mxCell>
        <mxCell id="j1nzViJjYUKPPVmFAg8O-34" value="Signal On&lt;br&gt;Received Cash" style="rounded=1;whiteSpace=wrap;html=1;" parent="77e6c97f196da883-4" vertex="1">
          <mxGeometry x="20" y="690" width="120" height="60" as="geometry" />
        </mxCell>
        <mxCell id="j1nzViJjYUKPPVmFAg8O-39" value="Received Cash&lt;br&gt;&amp;gt;= Amount" style="strokeWidth=1;html=1;shape=mxgraph.flowchart.decision;whiteSpace=wrap;" parent="77e6c97f196da883-4" vertex="1">
          <mxGeometry x="10" y="860" width="120" height="60" as="geometry" />
        </mxCell>
        <mxCell id="j1nzViJjYUKPPVmFAg8O-35" style="edgeStyle=orthogonalEdgeStyle;rounded=0;orthogonalLoop=1;jettySize=auto;html=1;exitX=1;exitY=0.5;exitDx=0;exitDy=0;entryX=0;entryY=0.5;entryDx=0;entryDy=0;" parent="77e6c97f196da883-1" source="j1nzViJjYUKPPVmFAg8O-30" target="j1nzViJjYUKPPVmFAg8O-34" edge="1">
          <mxGeometry relative="1" as="geometry" />
        </mxCell>
        <mxCell id="j1nzViJjYUKPPVmFAg8O-37" style="edgeStyle=orthogonalEdgeStyle;rounded=0;orthogonalLoop=1;jettySize=auto;html=1;entryX=1;entryY=0.5;entryDx=0;entryDy=0;" parent="77e6c97f196da883-1" source="j1nzViJjYUKPPVmFAg8O-34" target="j1nzViJjYUKPPVmFAg8O-36" edge="1">
          <mxGeometry relative="1" as="geometry">
            <mxPoint x="400" y="840" as="targetPoint" />
            <Array as="points">
              <mxPoint x="400" y="820" />
            </Array>
          </mxGeometry>
        </mxCell>
        <mxCell id="j1nzViJjYUKPPVmFAg8O-41" value="False" style="edgeStyle=orthogonalEdgeStyle;rounded=0;orthogonalLoop=1;jettySize=auto;html=1;exitX=0;exitY=0.5;exitDx=0;exitDy=0;exitPerimeter=0;entryX=0.5;entryY=1;entryDx=0;entryDy=0;" parent="77e6c97f196da883-1" source="j1nzViJjYUKPPVmFAg8O-39" target="j1nzViJjYUKPPVmFAg8O-30" edge="1">
          <mxGeometry x="-0.8462" y="-10" relative="1" as="geometry">
            <mxPoint as="offset" />
          </mxGeometry>
        </mxCell>
        <mxCell id="j1nzViJjYUKPPVmFAg8O-54" value="True" style="edgeStyle=orthogonalEdgeStyle;rounded=0;orthogonalLoop=1;jettySize=auto;html=1;exitX=0.5;exitY=1;exitDx=0;exitDy=0;exitPerimeter=0;" parent="77e6c97f196da883-1" source="j1nzViJjYUKPPVmFAg8O-39" target="j1nzViJjYUKPPVmFAg8O-42" edge="1">
          <mxGeometry x="-0.45" y="-15" relative="1" as="geometry">
            <Array as="points">
              <mxPoint x="390" y="1010" />
            </Array>
            <mxPoint as="offset" />
          </mxGeometry>
        </mxCell>
        <mxCell id="j1nzViJjYUKPPVmFAg8O-40" style="edgeStyle=orthogonalEdgeStyle;rounded=0;orthogonalLoop=1;jettySize=auto;html=1;entryX=0.5;entryY=0;entryDx=0;entryDy=0;entryPerimeter=0;" parent="77e6c97f196da883-1" source="j1nzViJjYUKPPVmFAg8O-36" target="j1nzViJjYUKPPVmFAg8O-39" edge="1">
          <mxGeometry relative="1" as="geometry">
            <Array as="points">
              <mxPoint x="240" y="860" />
              <mxPoint x="390" y="860" />
            </Array>
          </mxGeometry>
        </mxCell>
        <mxCell id="j1nzViJjYUKPPVmFAg8O-16" value="" style="strokeWidth=1;html=1;shape=mxgraph.flowchart.database;whiteSpace=wrap;" parent="1" vertex="1">
          <mxGeometry x="590" y="440" width="60" height="60" as="geometry" />
        </mxCell>
        <mxCell id="j1nzViJjYUKPPVmFAg8O-17" value="" style="strokeWidth=1;html=1;shape=mxgraph.flowchart.database;whiteSpace=wrap;" parent="1" vertex="1">
          <mxGeometry x="590" y="240" width="60" height="60" as="geometry" />
        </mxCell>
      </root>
    </mxGraphModel>
  </diagram>
</mxfile>
